<?xml version="1.0" encoding="utf-8"?>
<!-- Generator: Adobe Illustrator 21.0.2, SVG Export Plug-In . SVG Version: 6.00 Build 0)  -->
<svg version="1.2" baseProfile="tiny" id="Layer_1" xmlns="http://www.w3.org/2000/svg" xmlns:xlink="http://www.w3.org/1999/xlink"
	 x="0px" y="0px" viewBox="0 0 501 89.3" xml:space="preserve">
<g>
	<g>
		<path fill="#FFFFFF" d="M68.4,50.1c0,10.4-2.9,18.2-8.6,23.2s-16,7.5-30.8,7.5h-2.6c-4,0-7.5-0.7-10.6-2.1s-5.2-4.5-6.3-9.2
			c1.7,3.1,3.8,5.3,6.2,6.4s5,2,7.9,2.6V37.8c0-2,0.7-4.7,2.2-8.1s2.8-5.8,4-7.4c-9,0-15.7,0.9-19.9,2.6S3.5,30.3,3.5,36
			c0,4.8,1,8.4,3.1,11c2,2.6,5.8,5.4,11.4,8.6c-6,0-10.4-1.6-13.4-4.8C1.5,47.7,0,43.7,0,39c0-5.8,2.1-10.5,6.3-14
			c4.2-3.6,12.6-5.4,25-5.4l1.3-1.1v1.1c10.7,0,19.3,2.3,25.9,6.9S68.4,39,68.4,50.1z M32.8,64.9c0,2.1-0.7,4.4-2.1,6.9
			s-2.9,4.8-4.4,6.9c7,0,12.8-0.5,17.5-1.6s8.5-3.3,11.4-6.7C58,67,59.4,62,59.4,55.5c0-10.5-1.9-18.6-5.7-24.5s-10.8-8.8-20.9-8.8
			C32.8,22.2,32.8,64.9,32.8,64.9z"/>
		<path fill="#FFFFFF" d="M77.9,34.8c1.3,0,2.2,0.6,2.5,1.9c0.4,1.3,0.5,3.4,0.5,6.6v3.2c1.8-2.5,3.6-5,5.5-7.5
			c2.3-2.7,4.6-4.1,6.9-4.1c1.3,0,2.3,0.5,3,1.4s1.1,2,1.1,3.4c0,1.6-0.9,3.4-2.7,5.4c-1.8,2-3.6,3.8-5.3,5.5
			c0.2-0.5,0.5-1.3,0.7-2.4c0.2-1.1,0.4-2.1,0.4-2.9c0-1-0.2-1.9-0.5-2.6c-0.4-0.7-1-1-1.8-1c-0.9,0-2,0.8-3.4,2.4
			c-1.3,1.6-2.6,3.3-3.9,4.9v13.2c-0.8,0.8-1.7,1.5-2.8,2.3c-1.1,0.8-2.3,1.3-3.7,1.4V42.4c0-1-0.5-1.5-1.4-1.5
			c-0.4,0-0.9,0.2-1.5,0.5s-1.2,0.8-1.9,1.5c0.8-1.6,2.1-3.3,4-5.2S77,34.8,77.9,34.8z"/>
		<path fill="#FFFFFF" d="M126.3,35.1v26.2c0,0.6,0.4,0.9,0.9,0.9c0.4,0,0.9-0.2,1.5-0.5s1.5-0.8,2.9-1.6c-0.6,1.3-1.6,2.5-3.1,3.8
			c-1.4,1.2-2.8,1.8-4.1,1.8c-0.8,0-1.7-0.5-2.9-1.6c-1.2-1-1.8-2.4-1.8-4.2v-3.8c-2.9,2.9-5.3,5.2-7.3,7c-2,1.8-3.7,2.6-5.2,2.6
			c-1.6,0-3-0.9-4.3-2.8c-1.3-1.9-1.9-4.4-1.9-7.6c0-6.4,1.8-11.4,5.3-15s8.2-5.3,13.8-5.3L126.3,35.1L126.3,35.1z M107.8,50
			c0,2.3,0.4,4,1.1,5.1c0.8,1.1,1.8,1.6,3.1,1.6c1.1,0,2.4-0.3,3.7-1c1.3-0.7,2.6-1.6,3.9-2.8V37.1c-3.5,0-6.4,1.3-8.6,3.9
			C108.8,43.7,107.8,46.7,107.8,50z"/>
		<path fill="#FFFFFF" d="M159,69.1c0,5.6-1.7,10.4-5.1,14.3c-3.4,3.9-7.2,5.9-11.5,5.9c-3.2,0-5.4-0.9-6.6-2.8
			c-1.3-1.9-1.9-4.3-1.9-7.3c0-2,0.3-4.1,1-6.1s2.3-4.6,4.9-7.6c-1.7,0-3.1-0.9-4.3-2.7s-1.8-4.3-1.8-7.4c0-6.2,2-11.1,6.1-14.8
			c4.1-3.7,8.4-5.6,13-5.6h6.2L159,69.1L159,69.1z M152.4,56.3c-3.4,3.4-6.8,6.7-10.1,10.1c-2.7,3.8-4,7.6-4,11.3
			c0,2.7,0.6,4.6,1.8,5.7s2.8,1.7,4.8,1.7c2.3,0,4.1-1,5.5-3.1s2.1-4.6,2.1-7.4V56.3H152.4z M140.5,50c0,2.3,0.4,4,1.1,5.1
			c0.8,1.1,1.8,1.6,3.1,1.6c1.1,0,2.4-0.3,3.7-1s2.6-1.6,3.9-2.8V37.1c-3.5,0-6.4,1.3-8.6,3.9C141.6,43.7,140.5,46.7,140.5,50z"/>
		<path fill="#FFFFFF" d="M178.3,34.8c3.9,0,6.9,1.4,9.1,4.2c2.2,2.8,3.3,6.2,3.3,10.3c0,4.3-1.6,8.2-4.8,11.5s-6.8,5-10.8,5
			c-3.7,0-6.7-1.4-8.9-4.2s-3.3-6.3-3.3-10.6c0-4.2,1.6-8,4.7-11.3C170.6,36.4,174.2,34.8,178.3,34.8z M169,46.9
			c0,3.9,0.5,7.4,1.5,10.7s3.3,4.9,6.8,4.9c2,0,3.7-0.8,5-2.5s1.9-3.9,1.9-6.5c0-3.8-0.6-7.3-1.9-10.5c-1.3-3.2-3.5-4.8-6.5-4.8
			c-2.1,0-3.7,0.8-5,2.5C169.7,42.2,169,44.3,169,46.9z"/>
		<path fill="#FFFFFF" d="M219,61c0,1,0.4,1.6,1.1,1.6c1,0,2.3-0.8,4-2.3c-0.9,1.8-2.1,3.2-3.5,4.1c-1.4,1-2.7,1.5-3.8,1.5
			c-1.3,0-2.3-0.4-3-1.2c-0.8-0.8-1.2-2-1.2-3.6V45.2c0-1.1-0.1-1.9-0.4-2.6c-0.2-0.6-0.9-1-2-1c-1.2,0-2.8,1.2-4.7,3.7
			s-2.9,3.9-2.9,4.4v12c-0.2,1-1,1.9-2.4,2.8s-2.7,1.3-4.1,1.3V41.7c0-0.8-0.3-1.1-0.9-1.1c-0.7,0-2.1,0.6-4,1.9
			c1.8-2.3,3.4-4.1,4.9-5.4c1.5-1.3,2.6-2,3.5-2c1.3,0,2.2,0.7,2.5,2.2c0.4,1.4,0.5,3.7,0.5,6.7v2.6c1.8-2.9,3.8-5.5,5.8-7.9
			s4.2-3.6,6.5-3.6c1.7,0,2.9,0.6,3.5,1.8s0.8,3,0.8,5.3c0,0.7,0,1.4,0,2.1s0,1.4,0,2.1c0,1.4,0,2.8,0,4.4s0,3.4,0,5.6
			c0,1.2,0,2.3,0,3.2C219,60.5,219,61,219,61z"/>
		<path fill="#FFFFFF" d="M229,18.5c1.3,1.1,2.2,2.3,2.8,3.6c0.6,1.3,0.9,2.5,0.9,3.7c0,1.6-0.5,3.2-1.6,4.6c-1,1.5-2.5,2.7-4.3,3.8
			c0.9-1.3,1.3-2.6,1.3-3.8c0-1.4-0.3-2.5-0.9-3.1c-0.6-0.7-1.8-1.8-3.7-3.3c0.4-0.9,0.9-1.9,1.6-2.9S227.2,19,229,18.5z"/>
		<path fill="#FFFFFF" d="M255,34.6c-0.8,1.3-1.4,2.6-1.8,3.8c-0.4,1.3-0.7,2.4-1,3.5c-1.5-1.7-2.9-2.9-4.3-3.6
			c-1.3-0.7-2.9-1-4.6-1c-1.8,0-3,0.3-3.7,0.9c-0.7,0.6-1.1,1.4-1.1,2.5c0,1.2,1.8,2.5,5.3,4s6.3,3,8.4,4.5s3.1,3.8,3.1,7.1
			c0,3.8-1.2,6.3-3.5,7.6c-2.3,1.2-5.3,1.9-8.9,1.9c-3.6,0-6-0.7-7-2s-1.5-4.6-1.5-9.9c0.9,2.5,2.4,4.7,4.4,6.7s4.5,3,7.3,3
			c3.3,0,4.9-1.5,4.9-4.4c0-1.4-1.7-2.9-5.2-4.5s-6.1-3.1-8.1-4.6c-1.9-1.5-2.9-3.9-2.9-7.4c0-3,0.9-5.1,2.8-6.2
			c1.8-1.1,4.3-1.7,7.4-1.7c0.8,0,1.9,0.2,3.3,0.5c1.4,0.3,2.2,0.5,2.5,0.5c0.8,0,1.4-0.1,1.9-0.2C253.4,35.3,254.1,35,255,34.6z"/>
		<path fill="#FFFFFF" d="M416.1,18c-2.9,3.1-6,5.2-9.2,6.5c-3.3,1.2-7.1,1.8-11.6,1.8h-20.6c0.9,0,3,0.8,6.3,2.4
			c3.2,1.6,6.3,4.4,9.3,8.4s4.5,9.4,4.5,16.1c0,9.1-2.5,16-7.6,20.6s-11.4,6.9-18.9,6.9c-7,0-12.1-2.1-15.6-6.3
			c-3.4-4.2-5.1-8.7-5.1-13.3c0-5.1,1.4-9.3,4.1-12.8s6.7-5.2,11.9-5.2c3.5,0,6.4,1.1,8.8,3.4c2.4,2.3,3.7,5.2,3.7,8.7
			c0,2.4-0.8,4.4-2.3,6.1c-1.6,1.7-3.2,2.8-4.9,3.3c0.9-1.5,1.6-2.9,2.1-4.2s0.7-2.8,0.7-4.7c0-3.5-0.9-6.2-2.6-8s-3.9-2.7-6.6-2.7
			c-2.6,0-5.2,1.3-7.9,3.8c-2.6,2.5-4,6-4,10.5c0,5.3,1.7,9.9,5.1,13.5c3.4,3.7,7.8,5.5,13.1,5.5c5.6,0,9.8-2.3,12.6-7
			c2.7-4.7,4.1-10.1,4.1-16.1c0-9.6-2-16.8-6-21.6s-9.1-7.2-15.3-7.2c-5.1,0-8.8,1.1-11.3,3.3s-4.9,5.7-7.1,10.3
			c0-6.5,2.4-11.6,7.3-15.2c4.8-3.6,10.5-5.4,17.1-5.4h7.1h5.6h4.5h3.5h2.8h2.2h1.6h1.3h1.1h0.8c0.7,0,1.3,0,1.7,0
			c0.4,0,0.7,0,0.9,0c1.4,0,3.4-0.1,6-0.4C411.6,18.7,414,18.4,416.1,18z"/>
		<path fill="#FFFFFF" d="M425.8,35.1v26.2c0,0.6,0.4,0.9,0.9,0.9c0.4,0,0.9-0.2,1.5-0.5s1.5-0.8,2.9-1.6c-0.6,1.3-1.6,2.5-3.1,3.8
			c-1.4,1.2-2.8,1.8-4.1,1.8c-0.8,0-1.7-0.5-2.9-1.6c-1.2-1-1.8-2.4-1.8-4.2v-3.8c-2.9,2.9-5.3,5.2-7.3,7c-2,1.8-3.7,2.6-5.2,2.6
			c-1.6,0-3-0.9-4.3-2.8c-1.3-1.9-1.9-4.4-1.9-7.6c0-6.4,1.8-11.4,5.3-15S414,35,419.6,35L425.8,35.1L425.8,35.1z M407.3,50
			c0,2.3,0.4,4,1.1,5.1c0.8,1.1,1.8,1.6,3.1,1.6c1.1,0,2.4-0.3,3.7-1c1.3-0.7,2.6-1.6,3.9-2.8V37.1c-3.5,0-6.4,1.3-8.6,3.9
			C408.4,43.7,407.3,46.7,407.3,50z"/>
		<path fill="#FFFFFF" d="M439.8,46.8c2.4-3.9,4.6-6.8,6.7-8.8c2.1-1.9,3.9-2.9,5.5-2.9c1.7,0,2.8,0.5,3.4,1.4
			c0.5,0.9,0.8,2.6,0.8,5.1v8.7c0,4.9-1.3,8.7-4,11.5s-5.9,4.2-9.8,4.2c-2.8,0-5.1-0.9-6.8-2.8c-1.7-1.9-2.6-5.2-2.6-9.9V30.5
			c0-3.5,0.9-6.4,2.7-8.7c1.8-2.4,4.2-3.5,7.2-3.5h6.4c-1.5,2.7-3.5,4.2-5.9,4.4c-2.4,0.2-3.6,0.6-3.6,1.3L439.8,46.8L439.8,46.8z
			 M439.8,56.6c0,4.2,1.5,6.2,4.5,6.2c1.3,0,2.4-0.6,3.4-2c1-1.3,1.5-3.5,1.5-6.6v-9.1c0-1-0.1-1.8-0.3-2.3
			c-0.2-0.5-0.8-0.8-1.8-0.8c-1.6,0-3.2,1.2-4.9,3.5c-1.7,2.3-2.6,3.9-2.6,4.9v6.2H439.8z"/>
		<path fill="#FFFFFF" d="M459.1,30.4c0-3.4,0.9-6.3,2.8-8.7s4.3-3.6,7.3-3.6h6.4c-1.5,2.7-3.5,4.2-5.9,4.4s-3.6,0.6-3.6,1.3V60
			c0,0.9,0.3,1.3,1,1.3c0.6,0,1.3-0.3,2.3-1c1-0.6,2-1.5,3.2-2.5c-1.2,2.2-2.7,4-4.5,5.7c-1.8,1.6-3.5,2.4-4.9,2.4s-2.4-0.5-3.1-1.6
			c-0.6-1.1-1-2.5-1-4.4L459.1,30.4L459.1,30.4z"/>
		<path fill="#FFFFFF" d="M491.4,34.9c1.8,0,3.4,0.3,4.6,1s2.8,2,4.9,4.1l-17.2,17.3c0.9,1.6,2.1,2.6,3.5,3s3,0.7,4.7,0.7
			s3.4-0.4,4.9-1.2s2.9-1.7,4.1-2.6c-1.9,2.9-4,5.1-6.2,6.5c-2.3,1.5-4.9,2.2-7.8,2.2c-4.2,0-7.2-1.3-8.9-4.1
			c-1.8-2.7-2.6-5.6-2.6-8.7c0-5.5,1.5-9.9,4.6-13.2C483.1,36.5,486.9,34.9,491.4,34.9z M483.1,55.6c1.7-1.6,3.3-3.2,5-4.8
			c2.5-2.7,3.8-4.7,3.8-6.1c0-1.7-0.4-3-1.2-3.9c-0.8-0.9-1.9-1.4-3.2-1.4c-1.7,0-3,1-3.9,3s-1.4,4.3-1.4,7c0,1.1,0.1,2.2,0.2,3.2
			C482.4,53.6,482.7,54.6,483.1,55.6z"/>
	</g>
	<path fill="#FFFFFF" d="M334.8,35.6c-1.5-11.7-9-19.1-14.6-23.1c-0.2-0.1-0.3-0.2-0.5-0.3c0,0,0,0,0-0.1c0,0-11-7.9-20.8-8.1
		c0,0,2.2,1.1,4,2.6c-2.6,0-5.2,0.3-7.8,1c-15.1,4-28.1,15.6-30,28.6c0,0,17.3-21.6,32.2-19.4c7.6,1.1,12.3,5.6,14,10.9
		c0.4,3.8,0.2,8.4-2.2,11.9c-0.2,0.2-0.5,0.5-0.5,0.7l0,0l-0.1,0.1c-2.2-11.6-17.5-6.9-17.5-6.9c5.4-10.6,3-12.5,3-12.5
		c-3.4,10.8-8.8,10-12.1,16.1c-3.3,6.1-2.3,11.7-2.3,11.7c6.6-7.2,14.8-10,16.3-6.4c1.3,3.2-1.1,4.1-1.7,4.4l-0.1-0.1h0.3v0.2
		c-9,3.1-18.7,7.3-20.3,17.9c-0.8,3.3-0.4,7,1.8,10.7c5.7,9.5,19,9.7,27.2,5.8c-0.5,2.8-2.1,5.4-2.1,5.4s1.1,0.8,4.3-1.9
		c3.2-2.6,6.2-10.6,5.4-9.9c-0.7,0.7-7.5,3.7-7.6,3.7c-5.3,1.4-13.1,2.3-17.8-2c-7.7-7.2,3.3-15.9,20.6-19.2
		c8.3-1.6,14.7-5.7,19-10.6c2.9,10.1-10,29.2-10,29.2C324.7,70.6,337.2,54.7,334.8,35.6z"/>
	<g>
		<path fill="#FFFFFF" d="M73,8.6h3c-0.3,0.7-0.8,1.1-1.3,1.3c-0.6,0.2-1.1,0.2-1.6,0.3V21c0,0.5,0.2,0.8,0.6,0.8
			c0.3,0,0.8-0.2,1.3-0.5s1.1-0.8,1.9-1.5c-0.7,1.3-1.5,2.3-2.4,3.1s-1.8,1.2-2.8,1.2c-0.7,0-1.2-0.3-1.5-0.9s-0.4-1.6-0.4-3.1v-10
			h-2.1c0.1-0.6,0.7-1.2,1.9-1.8S72,5.8,73.1,3L73,8.6L73,8.6z"/>
		<path fill="#FFFFFF" d="M89.9,11.9V22c0,0.3,0.2,0.5,0.4,0.5c0.4,0,1-0.4,2.1-1.1c-0.3,0.7-0.8,1.4-1.5,2s-1.4,0.9-2.2,0.9
			S87.3,24,87,23.5c-0.3-0.5-0.5-1.1-0.5-1.9v-7.8c0-0.5,0-0.9-0.1-1.2s-0.4-0.4-0.9-0.4c-0.8,0-1.6,0.6-2.5,1.8s-1.3,2-1.3,2.5v4.3
			c0,0.9-0.3,1.7-1,2.5c-0.7,0.7-1.5,1.1-2.5,1.1v-18c0-1.7,0.5-3.2,1.4-4.4c0.8-1.4,2.1-2,3.6-2h3.2c-0.8,1.4-1.8,2.1-3,2.2
			s-1.8,0.3-1.8,0.7v11.6c1.2-2,2.3-3.5,3.4-4.5s2-1.5,2.7-1.5c0.9,0,1.4,0.2,1.7,0.7C89.7,9.7,89.9,10.6,89.9,11.9z"/>
		<path fill="#FFFFFF" d="M102,8.5c0.9,0,1.7,0.2,2.3,0.5s1.4,1,2.5,2.1l-8.7,8.8c0.5,0.8,1.1,1.3,1.8,1.5c0.7,0.2,1.5,0.3,2.4,0.3
			s1.7-0.2,2.5-0.6s1.5-0.9,2.1-1.3c-1,1.5-2,2.6-3.2,3.3c-1.2,0.7-2.5,1.1-4,1.1c-2.1,0-3.6-0.7-4.5-2.1s-1.3-2.9-1.3-4.4
			c0-2.8,0.8-5,2.3-6.7C97.8,9.3,99.7,8.5,102,8.5z M97.8,19c0.8-0.8,1.7-1.6,2.5-2.5c1.3-1.4,1.9-2.4,1.9-3.1c0-0.8-0.2-1.5-0.6-2
			s-0.9-0.7-1.6-0.7c-0.8,0-1.5,0.5-2,1.5s-0.7,2.2-0.7,3.6c0,0.6,0,1.1,0.1,1.6C97.5,18,97.6,18.5,97.8,19z"/>
	</g>
</g>
</svg>
