<?xml version="1.0" encoding="utf-8"?>
<!-- Generator: Adobe Illustrator 21.0.2, SVG Export Plug-In . SVG Version: 6.00 Build 0)  -->
<svg version="1.2" baseProfile="tiny" id="Layer_1" xmlns="http://www.w3.org/2000/svg" xmlns:xlink="http://www.w3.org/1999/xlink"
	 x="0px" y="0px" viewBox="0 0 243.9 302.4" overflow="scroll" xml:space="preserve">
<g>
	<path fill="#D3C2C3" d="M239.9,63.3c-1.2-0.8-2.5-1.4-3.9-1.7L156.6,19c-0.4-0.4-0.8-0.7-1.2-1c-2.8-2-6.6-2.5-10.5-1.3L32.3,53.3
		c-7.2,2.4-12.9,9.9-12.9,17.2v175.6c0,3.6,1.4,6.6,3.9,8.6c0.1,0,0.1,0.1,0.2,0.1c0,0,0.1,0.1,0.1,0.1c0.7,0.5,1.4,0.9,2.2,1.2
		l81.8,43.9c0.1,0.1,0.3,0.2,0.4,0.3c1.8,1.3,3.9,1.9,6.3,1.9c1.4,0,2.8-0.2,4.2-0.7L231.2,265c7.2-2.4,12.9-9.9,12.9-17.2V72.2
		C244.1,68.5,242.6,65.3,239.9,63.3z"/>
	<g>
		<polygon fill="#FFFFFF" points="18.1,241.9 90,280.6 90,221.6 		"/>
		<polygon fill="#FFFFFF" points="119.9,33.7 145.7,103.7 222.8,49.9 133.4,5.6 		"/>
		<g>
			
				<path fill="#FFFFFF" stroke="#84090A" stroke-width="6" stroke-linecap="round" stroke-linejoin="round" stroke-miterlimit="10" d="
				M14.4,41.1L130.2,3.5c6.2-2,11.2,1.4,11.2,7.6v180.5c0,6.2-5,12.8-11.2,14.8L14.4,244c-6.2,2-11.2-1.4-11.2-7.6V55.9
				C3.2,49.8,8.2,43.1,14.4,41.1z"/>
			<path fill="#FFFFFF" d="M149.2,14c0,0-14.7-8.6-15.8-8.4c-1.1,0.2-1.8,26.2-1.8,26.2l0.4,43.1l12.9-4.2L149.2,14z"/>
			<path fill="#FFFFFF" d="M27.5,251.5l-19.3-10c0,0-1.5-0.7-1.3-4.3c0.2-3.6,20.5-7.8,20.5-7.8l60.7-18.2v19.5L27.5,251.5z"/>
			<polygon fill="#EFE8E8" points="6,242.8 87.2,285.3 87.1,262.2 6.2,221.1 			"/>
			
				<line fill="none" stroke="#84090A" stroke-width="6" stroke-linecap="round" stroke-linejoin="round" stroke-miterlimit="10" x1="222.8" y1="50.2" x2="136.7" y2="3.9"/>
			
				<line fill="none" stroke="#84090A" stroke-width="6" stroke-linecap="round" stroke-linejoin="round" stroke-miterlimit="10" x1="6.2" y1="243.1" x2="93.4" y2="289.9"/>
			
				<path fill="#FFFFFF" stroke="#84090A" stroke-width="6" stroke-linecap="round" stroke-linejoin="round" stroke-miterlimit="10" d="
				M101.2,87.8L217,50.1c6.2-2,11.2,1.4,11.2,7.6v180.5c0,6.2-5,12.8-11.2,14.8l-115.8,37.6c-6.2,2-11.2-1.4-11.2-7.6V102.6
				C90,96.4,95.1,89.8,101.2,87.8z"/>
			
				<line fill="none" stroke="#84090A" stroke-width="6" stroke-linecap="round" stroke-linejoin="round" stroke-miterlimit="10" x1="3.2" y1="185.9" x2="90" y2="230.5"/>
			<polygon fill="#D3C2C3" points="213.3,113.8 213.3,236.1 119.9,265.9 			"/>
			
				<line fill="none" stroke="#84090A" stroke-width="6" stroke-linecap="round" stroke-linejoin="round" stroke-miterlimit="10" x1="65.4" y1="77.7" x2="81.4" y2="85.9"/>
			
				<line fill="none" stroke="#84090A" stroke-width="6" stroke-linecap="round" stroke-linejoin="round" stroke-miterlimit="10" x1="16.5" y1="52.6" x2="52.3" y2="71"/>
			<polygon fill="#84090A" points="8.6,241 3.9,238.5 4.7,244 			"/>
		</g>
	</g>
</g>
</svg>
