<?xml version="1.0" encoding="utf-8"?>
<!-- Generator: Adobe Illustrator 21.0.2, SVG Export Plug-In . SVG Version: 6.00 Build 0)  -->
<svg version="1.2" baseProfile="tiny" id="Layer_1" xmlns="http://www.w3.org/2000/svg" xmlns:xlink="http://www.w3.org/1999/xlink"
	 x="0px" y="0px" viewBox="0 0 172.5 150" overflow="scroll" xml:space="preserve">
<path fill="#FFFFFF" d="M171.9,60.7c-1.1-4.9-6.1-8.5-10.7-8.4c-7.6,0.1-15.3,0-22.9,0c-0.7,0-1.3,0-1.8,0
	c-1.2-1.1-20.6-33.1-21.9-36c0.1-1.3,0.3-2.4,0.4-3.6c0.1-1.2,0-2.3-0.3-3.4C113.6,4,109,0,103.5,0c-4.2,0-7.9,2.3-9.9,5.8
	c-1.1,1.6-1.7,3.4-1.8,5.5c-0.1,3,0.5,5.8,2.5,8.2c1.5,1.9,3.4,3.1,5.7,3.8c0.5,0.2,1,0.3,1.7,0.5c5.6,9.3,11.3,18.8,17,28.4
	c-21.8,0-43.4,0-65.2,0c5.7-9.5,11.3-18.9,17-28.3c2.2-0.6,4.2-1.4,6-2.8c3.5-2.9,4.6-7.4,3.8-11.3C79.5,4.2,74.7,0,69,0
	c-4,0-7.6,2.1-9.6,5.3c-1.3,1.7-2,3.7-2,6.1c-0.1,1.6,0.1,3.2,0.3,5.3c-6.9,11.6-14.1,23.5-21.4,35.7c-0.6,0-1.3,0-1.9,0
	c-7.6,0-15.2,0.1-22.7,0c-4.6-0.1-9.9,2.7-11.4,9c-0.3,1.1-0.3,2.2-0.5,3.3c0,0.6,0,1.2,0,1.8c0.1,1.1,0.3,2.2,0.3,3.3
	c-0.3,5.1,3.7,10.1,9,11.2c0.8,0.2,1.5,0.2,2.4,0.3c0.4,2.5,0.8,5,1.2,7.5c1.7,10.3,3.3,20.6,5,30.9c0.8,5,1.7,10,2.5,15
	c1.4,8.8,9.6,15.4,18.2,15.4c31.7-0.1,63.3-0.2,95,0c9.2,0.1,17.8-6.8,19.1-16.6c0.6-4.7,1.5-9.4,2.2-14.1
	c1.2-7.4,2.4-14.8,3.6-22.2c0.9-5.2,1.7-10.5,2.6-15.5c1.8-0.6,3.7-0.9,5.3-1.7c3.9-2.1,6.1-5.4,6.1-10c0-1.3,0.2-2.6,0.3-3.9
	c0-0.6,0-1.2,0-1.8C172.3,63,172.1,61.8,171.9,60.7z M34.6,75.6c-3.4,0-6.1-2.7-6.3-6c-0.1-3.3,3-6.3,6.1-6.2c3.4,0,6.1,2.7,6.2,6.1
	C40.7,72.8,37.9,75.6,34.6,75.6z M55.9,132.5c-0.3,0-0.6,0-0.9,0c0,0,0,0,0,0c-1.1,0-2.3,0.1-3.4,0c-2.4-0.3-3.9-1.8-4.4-4.1
	c-2.4-10.5-4.8-21-7.1-31.5c-0.6-2.8,0.6-4.2,3.5-4.1c1.8,0,3.7-0.1,5.5-0.1c1,0,2,0.2,3,0.6c1.4,0.5,2.3,1.6,2.6,3.2
	c0.6,3.8,1.1,7.5,1.7,11.3c0.6,3.8,1.1,7.7,1.6,11.5c0.4,3.2,0.9,6.4,1.3,9.6C59.5,131.1,58.3,132.4,55.9,132.5z M93.2,97.7
	c-0.3,6.8-0.6,13.7-0.9,20.5c-0.2,3.3-0.3,6.7-0.4,10c-0.1,2.4-1.2,3.8-3.6,4.1c-1.6,0.2-3.3,0.1-5-0.2c-1.6-0.2-2.7-1.8-2.9-3.5
	c-0.1-1.8-0.3-3.7-0.3-5.5c-0.2-5-0.3-10-0.5-15c-0.2-3.7-0.3-7.4-0.6-11.1c-0.2-2.3,1.5-4.6,4.3-4.6c2,0,4-0.1,6.1,0
	c2.4,0.1,3.9,1.8,3.9,4.2C93.3,97.1,93.3,97.4,93.2,97.7C93.3,97.7,93.2,97.7,93.2,97.7z M132.1,97.2c-2.3,10.2-4.6,20.3-6.9,30.5
	c-0.7,3.2-2.4,4.6-5.7,4.7c-1.2,0-2.5,0.1-3.7,0c-2-0.3-2.9-1.5-2.8-3.5c0.2-2.5,0.6-5,1-7.4c0.5-3.8,1.1-7.5,1.6-11.3
	c0.5-3.7,1.1-7.3,1.6-11c0.1-0.5,0.2-1.1,0.2-1.6c0.1-3.2,2.5-5.3,5.5-5c1.5,0,3.1,0,4.6,0c0.4,0,0.8,0,1.3,0
	C131.8,92.8,132.8,94.2,132.1,97.2z M137.7,75.6c-3.4,0-6.1-2.8-6-6.2c0-3.4,2.8-6.1,6.2-6c3.3,0.1,6,2.8,6,6.1
	C143.9,72.8,141,75.7,137.7,75.6z"/>
</svg>
