<?xml version="1.0" encoding="utf-8"?>
<!-- Generator: Adobe Illustrator 21.0.2, SVG Export Plug-In . SVG Version: 6.00 Build 0)  -->
<svg version="1.1" id="Layer_1" xmlns="http://www.w3.org/2000/svg" xmlns:xlink="http://www.w3.org/1999/xlink" x="0px" y="0px"
	 viewBox="0 0 98.5 89.7" style="enable-background:new 0 0 98.5 89.7;" xml:space="preserve">
<style type="text/css">
	.st0{fill:#FFFFFF;}
</style>
<g>
	<path class="st0" d="M26,71c-1.4,0-2.7-1-2.9-2.5L11.5,6H3C1.3,6,0,4.7,0,3s1.3-3,3-3h11c1.4,0,2.7,1,3,2.5l12,65
		c0.3,1.6-0.8,3.2-2.4,3.5C26.4,71,26.2,71,26,71z"/>
	<path class="st0" d="M93,75H26c-0.7,0-1.4-0.2-1.9-0.7l-6-5c-1.3-1.1-1.4-3-0.4-4.2c1.1-1.3,3-1.4,4.2-0.4l5.2,4.3H93
		c1.7,0,3,1.3,3,3S94.7,75,93,75z"/>
	<path class="st0" d="M37.5,62.5c-1.4,0-2.6-0.9-2.9-2.3c-0.4-1.6,0.6-3.2,2.2-3.6l55.7-13V19.5h-62c-1.7,0-3-1.3-3-3s1.3-3,3-3h65
		c1.7,0,3,1.3,3,3V46c0,1.4-1,2.6-2.3,2.9l-58,13.5C38,62.5,37.7,62.5,37.5,62.5z"/>
	<path class="st0" d="M36.8,89.7c-4.7,0-8.9-3-10.4-7.5c-0.5-1.6,0.3-3.3,1.9-3.8s3.3,0.3,3.8,1.9c0.7,2,2.6,3.4,4.7,3.4
		s4-1.4,4.7-3.4c0.5-1.6,2.2-2.4,3.8-1.9s2.4,2.2,1.9,3.8C45.7,86.7,41.5,89.7,36.8,89.7z"/>
	<path class="st0" d="M71.5,89.7c-4.7,0-8.9-3-10.4-7.5c-0.5-1.6,0.3-3.3,1.9-3.8c1.6-0.5,3.3,0.3,3.8,1.9c0.7,2,2.6,3.4,4.7,3.4
		s4-1.4,4.7-3.4c0.5-1.6,2.2-2.4,3.8-1.9c1.6,0.5,2.4,2.2,1.9,3.8C80.4,86.7,76.2,89.7,71.5,89.7z"/>
</g>
</svg>
