<?xml version="1.0" encoding="utf-8"?>
<!-- Generator: Adobe Illustrator 21.0.2, SVG Export Plug-In . SVG Version: 6.00 Build 0)  -->
<svg version="1.2" baseProfile="tiny" id="Layer_1" xmlns="http://www.w3.org/2000/svg" xmlns:xlink="http://www.w3.org/1999/xlink"
	 x="0px" y="0px" viewBox="0 0 71 71" xml:space="preserve">
<g>
	<g>
		<path fill="#9B96A3" d="M35.5,43.3c-1.5-0.1-2.7-1.4-2.7-3l0-24.1c0-1.7,1.3-3,3-3c1.7,0,3,1.3,3,3l0,24.1c0,1.7-1.3,3-3,3
			C35.7,43.3,35.6,43.3,35.5,43.3z"/>
		<circle fill="#9B96A3" cx="35.8" cy="52" r="4"/>
	</g>
	<path fill="#9B96A3" d="M35.5,71C15.9,71,0,55.1,0,35.5C0,15.9,15.9,0,35.5,0C55.1,0,71,15.9,71,35.5C71,55.1,55.1,71,35.5,71z
		 M35.5,6C19.2,6,6,19.2,6,35.5C6,51.8,19.2,65,35.5,65S65,51.8,65,35.5C65,19.2,51.8,6,35.5,6z"/>
</g>
</svg>
