<?xml version="1.0" encoding="utf-8"?>
<!-- Generator: Adobe Illustrator 21.0.2, SVG Export Plug-In . SVG Version: 6.00 Build 0)  -->
<svg version="1.2" baseProfile="tiny" id="Layer_1" xmlns="http://www.w3.org/2000/svg" xmlns:xlink="http://www.w3.org/1999/xlink"
	 x="0px" y="0px" viewBox="0 0 215.5 291.7" overflow="scroll" xml:space="preserve">
<g>
	<path fill="#D3C2C3" d="M200.8,249.7l0.4-197.2c1.8-3.3,8.9-15.8,12.4-22c4.6-8.3,0.6-13.5-0.3-14.5c-2.8-3.4-6.6-4.5-9.5-4.8
		c-0.2-0.1-0.5-0.1-0.7-0.1c-0.2,0-0.5,0-0.7,0c-1.5,0-2.6,0.1-2.7,0.1c-0.1,0-0.2,0-0.2,0.1c-4,0.5-6.6,1.9-8.9,3.1
		c-2.6,1.4-4.9,2.6-9.6,2.6s-7-1.2-9.6-2.6c-2.9-1.6-6.2-3.4-12.5-3.4c-6.3,0-9.6,1.8-12.5,3.4c-2.6,1.4-4.9,2.6-9.6,2.6
		s-7-1.2-9.6-2.6c-2.9-1.6-6.2-3.4-12.5-3.4s-9.6,1.8-12.5,3.4c-2.6,1.4-4.9,2.6-9.6,2.6s-7-1.2-9.6-2.6c-2.9-1.6-6.2-3.4-12.5-3.4
		s-9.6,1.8-12.5,3.4c-2.6,1.4-4.9,2.6-9.6,2.6s-7-1.2-9.6-2.6c-2.4-1.3-5-2.7-9.2-3.2c0,0,0,0-0.1,0c-0.1,0-1.1-0.2-2.6-0.2
		c-0.2,0-0.4,0-0.6,0c-0.2,0-0.4,0-0.7,0.1c-2.9,0.3-6.8,1.3-9.7,4.8c-0.9,1-4.9,6.2-0.3,14.5c3.8,6.9,12.3,21.8,12.8,22.7l-0.3,3.9
		l0.8,191.9c-0.2,0.2-0.3,0.3-0.4,0.6c-0.1,0.2-8.9,15.7-12.8,22.8c-4.6,8.3-0.6,13.5,0.3,14.5c2.9,3.5,6.8,4.5,9.7,4.8
		c0.2,0,0.4,0.1,0.6,0.1c0.2,0,0.4,0,0.5,0c0.1,0,0.3,0,0.4,0c1.3,0,2.2-0.1,2.3-0.2c0,0,0,0,0.1,0c4.3-0.5,6.9-1.9,9.2-3.2
		c2.6-1.4,4.9-2.6,9.6-2.6s7,1.2,9.6,2.6c2.9,1.6,6.2,3.4,12.5,3.4s9.6-1.8,12.5-3.4c2.6-1.4,4.9-2.6,9.6-2.6s7,1.2,9.6,2.6
		c2.9,1.6,6.2,3.4,12.5,3.4s9.6-1.8,12.5-3.4c2.6-1.4,4.9-2.6,9.6-2.6s7,1.2,9.6,2.6c2.9,1.6,6.2,3.4,12.5,3.4
		c6.3,0,9.6-1.8,12.5-3.4c2.6-1.4,4.9-2.6,9.6-2.6s7,1.2,9.6,2.6c2.3,1.2,4.8,2.6,8.9,3.1c0.1,0,0.2,0.1,0.2,0.1
		c0.1,0,1,0.2,2.3,0.2c0.2,0,0.3,0,0.5,0c0.2,0,0.4,0,0.6,0c0.2,0,0.5,0,0.7-0.1c2.9-0.3,6.7-1.4,9.5-4.8c0.9-1,4.9-6.2,0.3-14.5
		C209.6,265.4,200.8,249.9,200.8,249.7z"/>
	<polygon fill="#EFE8E8" points="14.2,246.4 3.2,268.9 7.3,276.1 13.1,277.9 21,274.9 30.7,272.3 39.2,271.6 47.7,274.9 55.7,277.9 
		64.5,276.3 71,273.1 77,271.6 83,271.8 91,274.9 99,276.8 110,276.3 120.2,271.8 130,272.6 140.7,277.9 152.2,276.6 165.5,271.8 
		179.2,274.9 194,276.4 200.3,269.2 196.9,259 186.2,245.2 	"/>
	<polygon fill="#EFE8E8" points="14.2,34.7 3.2,12.2 7.3,5 13.1,3.2 21,6.2 30.7,8.8 39.2,9.5 47.7,6.2 55.7,3.2 64.5,4.8 71,8 
		77,9.5 83,9.3 91,6.2 99,4.3 110,4.8 120.2,9.3 130,8.5 140.7,3.2 152.2,4.5 165.5,9.3 179.2,6.2 194,4.7 200.3,11.9 196.9,22.1 
		186.2,35.9 	"/>
	<g>
		<g>
			<path fill="#84090A" d="M167.9,268.9c-6.3,0-9.6,1.8-12.5,3.4c-2.6,1.4-4.9,2.6-9.6,2.6c-4.8,0-7-1.2-9.6-2.6
				c-2.9-1.6-6.2-3.4-12.5-3.4c-6.3,0-9.6,1.8-12.5,3.4c-2.6,1.4-4.9,2.6-9.6,2.6s-7-1.2-9.6-2.6c-2.9-1.6-6.2-3.4-12.5-3.4
				c-6.3,0-9.6,1.8-12.5,3.4c-2.6,1.4-4.9,2.6-9.6,2.6s-7-1.2-9.6-2.6c-2.9-1.6-6.2-3.4-12.5-3.4c-6.3,0-9.6,1.8-12.5,3.4
				c-2.6,1.4-4.9,2.6-9.6,2.6c-1.7,0-3,1.3-3,3s1.3,3,3,3c6.3,0,9.6-1.8,12.5-3.4c2.6-1.4,4.9-2.6,9.6-2.6s7,1.2,9.6,2.6
				c2.9,1.6,6.2,3.4,12.5,3.4s9.6-1.8,12.5-3.4c2.6-1.4,4.9-2.6,9.6-2.6s7,1.2,9.6,2.6c2.9,1.6,6.2,3.4,12.5,3.4s9.6-1.8,12.5-3.4
				c2.6-1.4,4.9-2.6,9.6-2.6c4.8,0,7,1.2,9.6,2.6c2.9,1.6,6.2,3.4,12.5,3.4c6.3,0,9.6-1.8,12.5-3.4c2.6-1.4,4.9-2.6,9.6-2.6
				s7,1.2,9.6,2.6c2.9,1.6,6.2,3.4,12.5,3.4c1.7,0,3-1.3,3-3s-1.3-3-3-3c-4.8,0-7-1.2-9.6-2.6C177.5,270.6,174.2,268.9,167.9,268.9z
				"/>
			<path fill="none" stroke="#84090A" stroke-width="6" stroke-linecap="round" stroke-linejoin="round" stroke-miterlimit="10" d="
				M187.1,277.7c0,0,6.8,1.2,10.8-3.7c0,0,4-3.9,0-11.1s-12.8-22.8-12.8-22.8"/>
			<path fill="none" stroke="#84090A" stroke-width="6" stroke-linecap="round" stroke-linejoin="round" stroke-miterlimit="10" d="
				M15.7,277.7c0,0-6.8,1.2-10.8-3.7c0,0-4-3.9,0-11.1s12.8-22.8,12.8-22.8"/>
		</g>
		<g>
			<path fill="#84090A" d="M167.9,12.2c-6.3,0-9.6-1.8-12.5-3.4c-2.6-1.4-4.9-2.6-9.6-2.6c-4.8,0-7,1.2-9.6,2.6
				c-2.9,1.6-6.2,3.4-12.5,3.4c-6.3,0-9.6-1.8-12.5-3.4c-2.6-1.4-4.9-2.6-9.6-2.6s-7,1.2-9.6,2.6c-2.9,1.6-6.2,3.4-12.5,3.4
				c-6.3,0-9.6-1.8-12.5-3.4c-2.6-1.4-4.9-2.6-9.6-2.6s-7,1.2-9.6,2.6c-2.9,1.6-6.2,3.4-12.5,3.4c-6.3,0-9.6-1.8-12.5-3.4
				C20,7.4,17.8,6.2,13,6.2c-1.7,0-3-1.3-3-3s1.3-3,3-3c6.3,0,9.6,1.8,12.5,3.4c2.6,1.4,4.9,2.6,9.6,2.6s7-1.2,9.6-2.6
				C47.7,2,51,0.2,57.3,0.2S66.9,2,69.8,3.6c2.6,1.4,4.9,2.6,9.6,2.6s7-1.2,9.6-2.6c2.9-1.6,6.2-3.4,12.5-3.4S111.1,2,114,3.6
				c2.6,1.4,4.9,2.6,9.6,2.6c4.8,0,7-1.2,9.6-2.6c2.9-1.6,6.2-3.4,12.5-3.4c6.3,0,9.6,1.8,12.5,3.4c2.6,1.4,4.9,2.6,9.6,2.6
				s7-1.2,9.6-2.6c2.9-1.6,6.2-3.4,12.5-3.4c1.7,0,3,1.3,3,3s-1.3,3-3,3c-4.8,0-7,1.2-9.6,2.6C177.5,10.4,174.2,12.2,167.9,12.2z"/>
			<path fill="none" stroke="#84090A" stroke-width="6" stroke-linecap="round" stroke-linejoin="round" stroke-miterlimit="10" d="
				M187.1,3.3c0,0,6.8-1.2,10.8,3.7c0,0,4,3.9,0,11.1s-12.8,22.8-12.8,22.8"/>
			<path fill="none" stroke="#84090A" stroke-width="6" stroke-linecap="round" stroke-linejoin="round" stroke-miterlimit="10" d="
				M15.7,3.3c0,0-6.8-1.2-10.8,3.7c0,0-4,3.9,0,11.1s12.8,22.8,12.8,22.8"/>
		</g>
		
			<path fill="#FFFFFF" stroke="#84090A" stroke-width="6" stroke-linecap="round" stroke-linejoin="round" stroke-miterlimit="10" d="
			M175.5,254.4h-148c-6.6,0-12-5.4-12-12V37c0-6.6,5.4-12,12-12h148c6.6,0,12,5.4,12,12v205.5C187.5,249,182.1,254.4,175.5,254.4z"
			/>
	</g>
	<path fill="none" stroke="#84090A" stroke-width="6" stroke-miterlimit="10" d="M51.9-7.7"/>
	<path fill="none" stroke="#84090A" stroke-width="6" stroke-linecap="round" stroke-linejoin="round" stroke-miterlimit="10" d="
		M98.1,148.9c-0.5,1.8-0.8,3.6-0.8,5.4c0,1.3,0,2.5,0,3.7v4.1c0,11.7,0,14.5,0,14.5"/>
	<path fill="none" stroke="#84090A" stroke-width="6" stroke-linecap="round" stroke-linejoin="round" stroke-miterlimit="10" d="
		M85,69.3c4-1.5,8.6-2.3,14.1-1.8c24.2,1.9,29.5,14.7,28.4,30.4c-1.1,16-16.1,27.9-24.2,40.3"/>
	<path fill="none" stroke="#84090A" stroke-width="6" stroke-linecap="round" stroke-linejoin="round" stroke-miterlimit="10" d="
		M63.5,90.3c0,0,3.8-9.7,13.6-15.6"/>
	<circle fill="#84090A" cx="98.2" cy="198.7" r="5.1"/>
</g>
</svg>
