<?xml version="1.0" encoding="utf-8"?>
<!-- Generator: Adobe Illustrator 21.0.2, SVG Export Plug-In . SVG Version: 6.00 Build 0)  -->
<svg version="1.2" baseProfile="tiny" id="Layer_1" xmlns="http://www.w3.org/2000/svg" xmlns:xlink="http://www.w3.org/1999/xlink"
	 x="0px" y="0px" viewBox="0 0 317.2 305.6" overflow="scroll" xml:space="preserve">
<g>
	<path fill="#D3C2C3" d="M193.4,305.4H29.5c-6.6,0-12-5.4-12-12V87.9c0-6.6,5.4-12,12-12h163.9c6.6,0,12,5.4,12,12v205.5
		C205.4,300,200,305.4,193.4,305.4z"/>
	
		<path fill="#EFE8E8" stroke="#84090A" stroke-width="6" stroke-linecap="round" stroke-linejoin="round" stroke-miterlimit="10" d="
		M179.1,289.6H15.2c-6.6,0-12-5.4-12-12V72.2c0-6.6,5.4-12,12-12h163.9c6.6,0,12,5.4,12,12v205.5
		C191.1,284.2,185.7,289.6,179.1,289.6z"/>
	<polygon fill="#D3C2C3" points="20.4,108.9 146.6,272.4 20.4,272.4 	"/>
	<path fill="#D3C2C3" d="M265.1,305.4H101.2c-6.6,0-12-5.4-12-12V87.9c0-6.6,5.4-12,12-12h163.9c6.6,0,12,5.4,12,12v205.5
		C277.1,300,271.7,305.4,265.1,305.4z"/>
	<g>
		
			<path fill="#EFE8E8" stroke="#84090A" stroke-width="6" stroke-linecap="round" stroke-linejoin="round" stroke-miterlimit="10" d="
			M250.8,289.6H86.9c-6.6,0-12-5.4-12-12V72.2c0-6.6,5.4-12,12-12h163.9c6.6,0,12,5.4,12,12v205.5
			C262.8,284.2,257.4,289.6,250.8,289.6z"/>
		<g>
			<polygon fill="#D3C2C3" points="89.2,108.9 215.4,272.4 89.2,272.4 			"/>
			<path fill="#D3C2C3" d="M305.3,248H141.4c-6.6,0-12-5.4-12-12V30.6c0-6.6,5.4-12,12-12h163.9c6.6,0,12,5.4,12,12V236
				C317.3,242.6,311.9,248,305.3,248z"/>
		</g>
		
			<path fill="#FFFFFF" stroke="#84090A" stroke-width="6" stroke-linecap="round" stroke-linejoin="round" stroke-miterlimit="10" d="
			M290.9,232.2H127.1c-6.6,0-12-5.4-12-12V14.8c0-6.6,5.4-12,12-12h163.9c6.6,0,12,5.4,12,12v205.5
			C302.9,226.8,297.5,232.2,290.9,232.2z"/>
	</g>
	
		<polyline fill="none" stroke="#84090A" stroke-width="6" stroke-linecap="round" stroke-linejoin="round" stroke-miterlimit="10" points="
		142.3,60.2 142.3,127.6 183.9,127.6 	"/>
	
		<line fill="none" stroke="#84090A" stroke-width="6" stroke-linecap="round" stroke-linejoin="round" stroke-miterlimit="10" x1="201.1" y1="127.6" x2="228.4" y2="127.6"/>
	
		<polyline fill="none" stroke="#84090A" stroke-width="6" stroke-linecap="round" stroke-linejoin="round" stroke-miterlimit="10" points="
		259.9,58 273.5,58 273.5,127.6 	"/>
	
		<line fill="none" stroke="#84090A" stroke-width="6" stroke-linecap="round" stroke-linejoin="round" stroke-miterlimit="10" x1="272.8" y1="127.6" x2="259.9" y2="127.6"/>
	
		<line fill="#EAEBEC" stroke="#84090A" stroke-width="6" stroke-linecap="round" stroke-linejoin="round" stroke-miterlimit="10" x1="138" y1="26.7" x2="210.4" y2="26.7"/>
	
		<line fill="#EAEBEC" stroke="#84090A" stroke-width="6" stroke-linecap="round" stroke-linejoin="round" stroke-miterlimit="10" x1="143.4" y1="166.8" x2="187.5" y2="166.8"/>
	
		<line fill="#EAEBEC" stroke="#84090A" stroke-width="6" stroke-linecap="round" stroke-linejoin="round" stroke-miterlimit="10" x1="272.1" y1="166.8" x2="201.1" y2="166.8"/>
	
		<line fill="#EAEBEC" stroke="#84090A" stroke-width="6" stroke-linecap="round" stroke-linejoin="round" stroke-miterlimit="10" x1="143.7" y1="185.4" x2="258.5" y2="185.4"/>
	<circle fill="#84090A" cx="269.9" cy="24.3" r="7.2"/>
	<circle fill="#84090A" cx="251.3" cy="24.3" r="7.2"/>
	
		<line fill="#F8F8F8" stroke="#84090A" stroke-width="6" stroke-linecap="round" stroke-linejoin="round" stroke-miterlimit="10" x1="262.8" y1="263.8" x2="262.8" y2="232.2"/>
</g>
</svg>
